<mxfile host="app.diagrams.net" modified="2021-03-03T09:30:49.543Z" agent="5.0 (Windows NT 10.0; Win64; x64) AppleWebKit/537.36 (KHTML, like Gecko) Chrome/89.0.4389.72 Safari/537.36" etag="wTTNB6HW0_-DI14OEo96" version="14.4.3" type="github">
  <diagram id="omM0A92GThbyadEF9SvA" name="Page-1">
    <mxGraphModel dx="2844" dy="1524" grid="1" gridSize="10" guides="1" tooltips="1" connect="1" arrows="1" fold="1" page="1" pageScale="1" pageWidth="4681" pageHeight="3300" math="0" shadow="0">
      <root>
        <mxCell id="0" />
        <mxCell id="1" parent="0" />
        <mxCell id="BGrQ7yWwQmBWqvewyJ-A-6" style="edgeStyle=orthogonalEdgeStyle;rounded=0;orthogonalLoop=1;jettySize=auto;html=1;entryX=0;entryY=0.25;entryDx=0;entryDy=0;exitX=0.75;exitY=1;exitDx=0;exitDy=0;" edge="1" parent="1" source="BGrQ7yWwQmBWqvewyJ-A-1" target="BGrQ7yWwQmBWqvewyJ-A-5">
          <mxGeometry relative="1" as="geometry" />
        </mxCell>
        <mxCell id="BGrQ7yWwQmBWqvewyJ-A-1" value="ROM" style="rounded=0;whiteSpace=wrap;html=1;" vertex="1" parent="1">
          <mxGeometry x="110" y="190" width="120" height="60" as="geometry" />
        </mxCell>
        <mxCell id="BGrQ7yWwQmBWqvewyJ-A-3" style="edgeStyle=orthogonalEdgeStyle;rounded=0;orthogonalLoop=1;jettySize=auto;html=1;exitX=0.5;exitY=0;exitDx=0;exitDy=0;entryX=0.075;entryY=1;entryDx=0;entryDy=0;entryPerimeter=0;" edge="1" parent="1" source="BGrQ7yWwQmBWqvewyJ-A-2" target="BGrQ7yWwQmBWqvewyJ-A-1">
          <mxGeometry relative="1" as="geometry">
            <mxPoint x="120" y="280" as="targetPoint" />
          </mxGeometry>
        </mxCell>
        <mxCell id="BGrQ7yWwQmBWqvewyJ-A-7" style="edgeStyle=orthogonalEdgeStyle;rounded=0;orthogonalLoop=1;jettySize=auto;html=1;entryX=0;entryY=0.5;entryDx=0;entryDy=0;exitX=0.5;exitY=0;exitDx=0;exitDy=0;" edge="1" parent="1" source="BGrQ7yWwQmBWqvewyJ-A-2" target="BGrQ7yWwQmBWqvewyJ-A-4">
          <mxGeometry relative="1" as="geometry">
            <Array as="points">
              <mxPoint x="120" y="650" />
              <mxPoint x="120" y="435" />
            </Array>
          </mxGeometry>
        </mxCell>
        <mxCell id="BGrQ7yWwQmBWqvewyJ-A-2" value="" style="shape=trapezoid;perimeter=trapezoidPerimeter;whiteSpace=wrap;html=1;fixedSize=1;rotation=-90;" vertex="1" parent="1">
          <mxGeometry x="120" y="620" width="120" height="60" as="geometry" />
        </mxCell>
        <mxCell id="BGrQ7yWwQmBWqvewyJ-A-8" style="edgeStyle=orthogonalEdgeStyle;rounded=0;orthogonalLoop=1;jettySize=auto;html=1;entryX=0;entryY=0.5;entryDx=0;entryDy=0;" edge="1" parent="1" source="BGrQ7yWwQmBWqvewyJ-A-4" target="BGrQ7yWwQmBWqvewyJ-A-5">
          <mxGeometry relative="1" as="geometry">
            <Array as="points">
              <mxPoint x="290" y="430" />
              <mxPoint x="290" y="430" />
            </Array>
          </mxGeometry>
        </mxCell>
        <mxCell id="BGrQ7yWwQmBWqvewyJ-A-10" style="edgeStyle=orthogonalEdgeStyle;rounded=0;orthogonalLoop=1;jettySize=auto;html=1;entryX=0.5;entryY=0;entryDx=0;entryDy=0;" edge="1" parent="1" target="BGrQ7yWwQmBWqvewyJ-A-9">
          <mxGeometry relative="1" as="geometry">
            <mxPoint x="255" y="430" as="sourcePoint" />
          </mxGeometry>
        </mxCell>
        <mxCell id="BGrQ7yWwQmBWqvewyJ-A-4" value="PC" style="rounded=0;whiteSpace=wrap;html=1;" vertex="1" parent="1">
          <mxGeometry x="190" y="410" width="60" height="50" as="geometry" />
        </mxCell>
        <mxCell id="BGrQ7yWwQmBWqvewyJ-A-18" style="edgeStyle=orthogonalEdgeStyle;rounded=0;orthogonalLoop=1;jettySize=auto;html=1;entryX=0;entryY=0.5;entryDx=0;entryDy=0;" edge="1" parent="1" source="BGrQ7yWwQmBWqvewyJ-A-5" target="BGrQ7yWwQmBWqvewyJ-A-16">
          <mxGeometry relative="1" as="geometry" />
        </mxCell>
        <mxCell id="BGrQ7yWwQmBWqvewyJ-A-20" style="edgeStyle=orthogonalEdgeStyle;rounded=0;orthogonalLoop=1;jettySize=auto;html=1;entryX=0;entryY=0.5;entryDx=0;entryDy=0;" edge="1" parent="1" source="BGrQ7yWwQmBWqvewyJ-A-5" target="BGrQ7yWwQmBWqvewyJ-A-19">
          <mxGeometry relative="1" as="geometry" />
        </mxCell>
        <mxCell id="BGrQ7yWwQmBWqvewyJ-A-22" style="edgeStyle=orthogonalEdgeStyle;rounded=0;orthogonalLoop=1;jettySize=auto;html=1;entryX=0;entryY=0.5;entryDx=0;entryDy=0;" edge="1" parent="1" source="BGrQ7yWwQmBWqvewyJ-A-5" target="BGrQ7yWwQmBWqvewyJ-A-21">
          <mxGeometry relative="1" as="geometry" />
        </mxCell>
        <mxCell id="BGrQ7yWwQmBWqvewyJ-A-25" style="edgeStyle=orthogonalEdgeStyle;rounded=0;orthogonalLoop=1;jettySize=auto;html=1;entryX=0;entryY=0.5;entryDx=0;entryDy=0;" edge="1" parent="1" source="BGrQ7yWwQmBWqvewyJ-A-5" target="BGrQ7yWwQmBWqvewyJ-A-23">
          <mxGeometry relative="1" as="geometry" />
        </mxCell>
        <mxCell id="BGrQ7yWwQmBWqvewyJ-A-26" style="edgeStyle=orthogonalEdgeStyle;rounded=0;orthogonalLoop=1;jettySize=auto;html=1;entryX=0;entryY=0.5;entryDx=0;entryDy=0;" edge="1" parent="1" source="BGrQ7yWwQmBWqvewyJ-A-5" target="BGrQ7yWwQmBWqvewyJ-A-24">
          <mxGeometry relative="1" as="geometry" />
        </mxCell>
        <mxCell id="BGrQ7yWwQmBWqvewyJ-A-5" value="IFID" style="rounded=0;whiteSpace=wrap;html=1;" vertex="1" parent="1">
          <mxGeometry x="380" y="240" width="80" height="380" as="geometry" />
        </mxCell>
        <mxCell id="BGrQ7yWwQmBWqvewyJ-A-12" style="edgeStyle=orthogonalEdgeStyle;rounded=0;orthogonalLoop=1;jettySize=auto;html=1;entryX=0.867;entryY=0.983;entryDx=0;entryDy=0;entryPerimeter=0;" edge="1" parent="1" source="BGrQ7yWwQmBWqvewyJ-A-9" target="BGrQ7yWwQmBWqvewyJ-A-2">
          <mxGeometry relative="1" as="geometry" />
        </mxCell>
        <mxCell id="BGrQ7yWwQmBWqvewyJ-A-9" value="+4" style="rounded=0;whiteSpace=wrap;html=1;" vertex="1" parent="1">
          <mxGeometry x="260" y="580" width="50" height="50" as="geometry" />
        </mxCell>
        <mxCell id="BGrQ7yWwQmBWqvewyJ-A-14" style="edgeStyle=orthogonalEdgeStyle;rounded=0;orthogonalLoop=1;jettySize=auto;html=1;entryX=0;entryY=0.5;entryDx=0;entryDy=0;" edge="1" parent="1" source="BGrQ7yWwQmBWqvewyJ-A-13" target="BGrQ7yWwQmBWqvewyJ-A-2">
          <mxGeometry relative="1" as="geometry">
            <Array as="points">
              <mxPoint x="180" y="760" />
              <mxPoint x="180" y="760" />
            </Array>
          </mxGeometry>
        </mxCell>
        <mxCell id="BGrQ7yWwQmBWqvewyJ-A-15" style="edgeStyle=orthogonalEdgeStyle;rounded=0;orthogonalLoop=1;jettySize=auto;html=1;entryX=0.5;entryY=1;entryDx=0;entryDy=0;" edge="1" parent="1" source="BGrQ7yWwQmBWqvewyJ-A-13" target="BGrQ7yWwQmBWqvewyJ-A-5">
          <mxGeometry relative="1" as="geometry">
            <Array as="points">
              <mxPoint x="420" y="720" />
              <mxPoint x="420" y="720" />
            </Array>
          </mxGeometry>
        </mxCell>
        <mxCell id="BGrQ7yWwQmBWqvewyJ-A-45" style="edgeStyle=orthogonalEdgeStyle;rounded=0;orthogonalLoop=1;jettySize=auto;html=1;entryX=0.5;entryY=1;entryDx=0;entryDy=0;" edge="1" parent="1" source="BGrQ7yWwQmBWqvewyJ-A-13" target="BGrQ7yWwQmBWqvewyJ-A-29">
          <mxGeometry relative="1" as="geometry">
            <Array as="points">
              <mxPoint x="750" y="720" />
              <mxPoint x="750" y="720" />
            </Array>
          </mxGeometry>
        </mxCell>
        <mxCell id="BGrQ7yWwQmBWqvewyJ-A-46" style="edgeStyle=orthogonalEdgeStyle;rounded=0;orthogonalLoop=1;jettySize=auto;html=1;entryX=0.5;entryY=1;entryDx=0;entryDy=0;" edge="1" parent="1" source="BGrQ7yWwQmBWqvewyJ-A-13" target="BGrQ7yWwQmBWqvewyJ-A-41">
          <mxGeometry relative="1" as="geometry">
            <Array as="points">
              <mxPoint x="1035" y="750" />
              <mxPoint x="1035" y="750" />
            </Array>
          </mxGeometry>
        </mxCell>
        <mxCell id="BGrQ7yWwQmBWqvewyJ-A-51" style="edgeStyle=orthogonalEdgeStyle;rounded=0;orthogonalLoop=1;jettySize=auto;html=1;entryX=0.5;entryY=1;entryDx=0;entryDy=0;" edge="1" parent="1" source="BGrQ7yWwQmBWqvewyJ-A-13" target="BGrQ7yWwQmBWqvewyJ-A-50">
          <mxGeometry relative="1" as="geometry">
            <Array as="points">
              <mxPoint x="1335" y="740" />
              <mxPoint x="1335" y="740" />
            </Array>
          </mxGeometry>
        </mxCell>
        <mxCell id="BGrQ7yWwQmBWqvewyJ-A-13" value="PipelineController" style="rounded=0;whiteSpace=wrap;html=1;" vertex="1" parent="1">
          <mxGeometry x="100" y="770" width="1560" height="60" as="geometry" />
        </mxCell>
        <mxCell id="BGrQ7yWwQmBWqvewyJ-A-30" style="edgeStyle=orthogonalEdgeStyle;rounded=0;orthogonalLoop=1;jettySize=auto;html=1;entryX=0.013;entryY=0.1;entryDx=0;entryDy=0;entryPerimeter=0;" edge="1" parent="1" source="BGrQ7yWwQmBWqvewyJ-A-16" target="BGrQ7yWwQmBWqvewyJ-A-29">
          <mxGeometry relative="1" as="geometry" />
        </mxCell>
        <mxCell id="BGrQ7yWwQmBWqvewyJ-A-16" value="OprGen" style="rounded=0;whiteSpace=wrap;html=1;" vertex="1" parent="1">
          <mxGeometry x="510" y="270" width="120" height="30" as="geometry" />
        </mxCell>
        <mxCell id="BGrQ7yWwQmBWqvewyJ-A-31" style="edgeStyle=orthogonalEdgeStyle;rounded=0;orthogonalLoop=1;jettySize=auto;html=1;entryX=0.025;entryY=0.294;entryDx=0;entryDy=0;entryPerimeter=0;" edge="1" parent="1" source="BGrQ7yWwQmBWqvewyJ-A-19" target="BGrQ7yWwQmBWqvewyJ-A-29">
          <mxGeometry relative="1" as="geometry" />
        </mxCell>
        <mxCell id="BGrQ7yWwQmBWqvewyJ-A-19" value="FunctGen" style="rounded=0;whiteSpace=wrap;html=1;" vertex="1" parent="1">
          <mxGeometry x="510" y="340" width="120" height="30" as="geometry" />
        </mxCell>
        <mxCell id="BGrQ7yWwQmBWqvewyJ-A-32" style="edgeStyle=orthogonalEdgeStyle;rounded=0;orthogonalLoop=1;jettySize=auto;html=1;entryX=0;entryY=0.5;entryDx=0;entryDy=0;" edge="1" parent="1" source="BGrQ7yWwQmBWqvewyJ-A-21" target="BGrQ7yWwQmBWqvewyJ-A-29">
          <mxGeometry relative="1" as="geometry" />
        </mxCell>
        <mxCell id="BGrQ7yWwQmBWqvewyJ-A-21" value="RegGen" style="rounded=0;whiteSpace=wrap;html=1;" vertex="1" parent="1">
          <mxGeometry x="510" y="410" width="120" height="30" as="geometry" />
        </mxCell>
        <mxCell id="BGrQ7yWwQmBWqvewyJ-A-33" style="edgeStyle=orthogonalEdgeStyle;rounded=0;orthogonalLoop=1;jettySize=auto;html=1;entryX=0.025;entryY=0.711;entryDx=0;entryDy=0;entryPerimeter=0;" edge="1" parent="1" source="BGrQ7yWwQmBWqvewyJ-A-23" target="BGrQ7yWwQmBWqvewyJ-A-29">
          <mxGeometry relative="1" as="geometry" />
        </mxCell>
        <mxCell id="BGrQ7yWwQmBWqvewyJ-A-23" value="MemGen" style="rounded=0;whiteSpace=wrap;html=1;" vertex="1" parent="1">
          <mxGeometry x="510" y="490" width="120" height="30" as="geometry" />
        </mxCell>
        <mxCell id="BGrQ7yWwQmBWqvewyJ-A-27" style="edgeStyle=orthogonalEdgeStyle;rounded=0;orthogonalLoop=1;jettySize=auto;html=1;entryX=0.5;entryY=1;entryDx=0;entryDy=0;exitX=0.5;exitY=1;exitDx=0;exitDy=0;" edge="1" parent="1" source="BGrQ7yWwQmBWqvewyJ-A-24" target="BGrQ7yWwQmBWqvewyJ-A-2">
          <mxGeometry relative="1" as="geometry" />
        </mxCell>
        <mxCell id="BGrQ7yWwQmBWqvewyJ-A-28" style="edgeStyle=orthogonalEdgeStyle;rounded=0;orthogonalLoop=1;jettySize=auto;html=1;entryX=0;entryY=0.75;entryDx=0;entryDy=0;exitX=0.75;exitY=1;exitDx=0;exitDy=0;" edge="1" parent="1" source="BGrQ7yWwQmBWqvewyJ-A-24" target="BGrQ7yWwQmBWqvewyJ-A-2">
          <mxGeometry relative="1" as="geometry">
            <Array as="points">
              <mxPoint x="600" y="740" />
              <mxPoint x="194" y="740" />
            </Array>
          </mxGeometry>
        </mxCell>
        <mxCell id="BGrQ7yWwQmBWqvewyJ-A-34" style="edgeStyle=orthogonalEdgeStyle;rounded=0;orthogonalLoop=1;jettySize=auto;html=1;entryX=-0.012;entryY=0.906;entryDx=0;entryDy=0;entryPerimeter=0;" edge="1" parent="1" source="BGrQ7yWwQmBWqvewyJ-A-24" target="BGrQ7yWwQmBWqvewyJ-A-29">
          <mxGeometry relative="1" as="geometry" />
        </mxCell>
        <mxCell id="BGrQ7yWwQmBWqvewyJ-A-24" value="BranchGen" style="rounded=0;whiteSpace=wrap;html=1;" vertex="1" parent="1">
          <mxGeometry x="510" y="560" width="120" height="30" as="geometry" />
        </mxCell>
        <mxCell id="BGrQ7yWwQmBWqvewyJ-A-36" style="edgeStyle=orthogonalEdgeStyle;rounded=0;orthogonalLoop=1;jettySize=auto;html=1;" edge="1" parent="1" source="BGrQ7yWwQmBWqvewyJ-A-29" target="BGrQ7yWwQmBWqvewyJ-A-35">
          <mxGeometry relative="1" as="geometry">
            <Array as="points">
              <mxPoint x="840" y="530" />
              <mxPoint x="840" y="635" />
            </Array>
          </mxGeometry>
        </mxCell>
        <mxCell id="BGrQ7yWwQmBWqvewyJ-A-39" style="edgeStyle=orthogonalEdgeStyle;rounded=0;orthogonalLoop=1;jettySize=auto;html=1;entryX=0.75;entryY=1;entryDx=0;entryDy=0;" edge="1" parent="1" source="BGrQ7yWwQmBWqvewyJ-A-29" target="BGrQ7yWwQmBWqvewyJ-A-38">
          <mxGeometry relative="1" as="geometry">
            <Array as="points">
              <mxPoint x="820" y="420" />
              <mxPoint x="820" y="420" />
            </Array>
          </mxGeometry>
        </mxCell>
        <mxCell id="BGrQ7yWwQmBWqvewyJ-A-40" style="edgeStyle=orthogonalEdgeStyle;rounded=0;orthogonalLoop=1;jettySize=auto;html=1;entryX=0.408;entryY=1.033;entryDx=0;entryDy=0;entryPerimeter=0;" edge="1" parent="1" source="BGrQ7yWwQmBWqvewyJ-A-29" target="BGrQ7yWwQmBWqvewyJ-A-38">
          <mxGeometry relative="1" as="geometry">
            <Array as="points">
              <mxPoint x="810" y="379" />
              <mxPoint x="810" y="379" />
            </Array>
          </mxGeometry>
        </mxCell>
        <mxCell id="BGrQ7yWwQmBWqvewyJ-A-29" value="IDEX" style="rounded=0;whiteSpace=wrap;html=1;" vertex="1" parent="1">
          <mxGeometry x="710" y="250" width="80" height="360" as="geometry" />
        </mxCell>
        <mxCell id="BGrQ7yWwQmBWqvewyJ-A-37" style="edgeStyle=orthogonalEdgeStyle;rounded=0;orthogonalLoop=1;jettySize=auto;html=1;entryX=0.457;entryY=-0.017;entryDx=0;entryDy=0;entryPerimeter=0;" edge="1" parent="1" source="BGrQ7yWwQmBWqvewyJ-A-35" target="BGrQ7yWwQmBWqvewyJ-A-13">
          <mxGeometry relative="1" as="geometry">
            <Array as="points">
              <mxPoint x="620" y="635" />
              <mxPoint x="620" y="769" />
            </Array>
          </mxGeometry>
        </mxCell>
        <mxCell id="BGrQ7yWwQmBWqvewyJ-A-35" value="" style="shape=dataStorage;whiteSpace=wrap;html=1;fixedSize=1;" vertex="1" parent="1">
          <mxGeometry x="630" y="610" width="50" height="50" as="geometry" />
        </mxCell>
        <mxCell id="BGrQ7yWwQmBWqvewyJ-A-42" style="edgeStyle=orthogonalEdgeStyle;rounded=0;orthogonalLoop=1;jettySize=auto;html=1;entryX=-0.033;entryY=0.341;entryDx=0;entryDy=0;entryPerimeter=0;" edge="1" parent="1" source="BGrQ7yWwQmBWqvewyJ-A-38" target="BGrQ7yWwQmBWqvewyJ-A-41">
          <mxGeometry relative="1" as="geometry" />
        </mxCell>
        <mxCell id="BGrQ7yWwQmBWqvewyJ-A-55" style="edgeStyle=orthogonalEdgeStyle;rounded=0;orthogonalLoop=1;jettySize=auto;html=1;entryX=0.5;entryY=0;entryDx=0;entryDy=0;" edge="1" parent="1" source="BGrQ7yWwQmBWqvewyJ-A-38" target="BGrQ7yWwQmBWqvewyJ-A-53">
          <mxGeometry relative="1" as="geometry">
            <Array as="points">
              <mxPoint x="980" y="390" />
              <mxPoint x="980" y="210" />
              <mxPoint x="1200" y="210" />
              <mxPoint x="1200" y="220" />
              <mxPoint x="1520" y="220" />
            </Array>
          </mxGeometry>
        </mxCell>
        <mxCell id="BGrQ7yWwQmBWqvewyJ-A-38" value="ALU" style="shape=trapezoid;perimeter=trapezoidPerimeter;whiteSpace=wrap;html=1;fixedSize=1;rotation=90;" vertex="1" parent="1">
          <mxGeometry x="850" y="360" width="120" height="60" as="geometry" />
        </mxCell>
        <mxCell id="BGrQ7yWwQmBWqvewyJ-A-44" style="edgeStyle=orthogonalEdgeStyle;rounded=0;orthogonalLoop=1;jettySize=auto;html=1;entryX=1;entryY=0.75;entryDx=0;entryDy=0;" edge="1" parent="1" source="BGrQ7yWwQmBWqvewyJ-A-41" target="BGrQ7yWwQmBWqvewyJ-A-35">
          <mxGeometry relative="1" as="geometry">
            <Array as="points">
              <mxPoint x="1130" y="460" />
              <mxPoint x="1130" y="710" />
              <mxPoint x="835" y="710" />
              <mxPoint x="835" y="648" />
            </Array>
          </mxGeometry>
        </mxCell>
        <mxCell id="BGrQ7yWwQmBWqvewyJ-A-48" style="edgeStyle=orthogonalEdgeStyle;rounded=0;orthogonalLoop=1;jettySize=auto;html=1;entryX=0;entryY=0.5;entryDx=0;entryDy=0;" edge="1" parent="1" source="BGrQ7yWwQmBWqvewyJ-A-41" target="BGrQ7yWwQmBWqvewyJ-A-47">
          <mxGeometry relative="1" as="geometry">
            <Array as="points">
              <mxPoint x="1100" y="425" />
              <mxPoint x="1100" y="425" />
            </Array>
          </mxGeometry>
        </mxCell>
        <mxCell id="BGrQ7yWwQmBWqvewyJ-A-54" style="edgeStyle=orthogonalEdgeStyle;rounded=0;orthogonalLoop=1;jettySize=auto;html=1;entryX=0.25;entryY=0;entryDx=0;entryDy=0;" edge="1" parent="1" source="BGrQ7yWwQmBWqvewyJ-A-41" target="BGrQ7yWwQmBWqvewyJ-A-53">
          <mxGeometry relative="1" as="geometry">
            <Array as="points">
              <mxPoint x="1140" y="330" />
              <mxPoint x="1140" y="210" />
              <mxPoint x="1490" y="210" />
            </Array>
          </mxGeometry>
        </mxCell>
        <mxCell id="BGrQ7yWwQmBWqvewyJ-A-41" value="EX/MEM" style="rounded=0;whiteSpace=wrap;html=1;" vertex="1" parent="1">
          <mxGeometry x="990" y="240" width="90" height="440" as="geometry" />
        </mxCell>
        <mxCell id="BGrQ7yWwQmBWqvewyJ-A-52" style="edgeStyle=orthogonalEdgeStyle;rounded=0;orthogonalLoop=1;jettySize=auto;html=1;entryX=0;entryY=0.25;entryDx=0;entryDy=0;" edge="1" parent="1" source="BGrQ7yWwQmBWqvewyJ-A-43" target="BGrQ7yWwQmBWqvewyJ-A-50">
          <mxGeometry relative="1" as="geometry">
            <Array as="points">
              <mxPoint x="1200" y="220" />
              <mxPoint x="1260" y="220" />
              <mxPoint x="1260" y="333" />
            </Array>
          </mxGeometry>
        </mxCell>
        <mxCell id="BGrQ7yWwQmBWqvewyJ-A-43" value="RAM" style="rounded=0;whiteSpace=wrap;html=1;" vertex="1" parent="1">
          <mxGeometry x="1100" y="130" width="120" height="60" as="geometry" />
        </mxCell>
        <mxCell id="BGrQ7yWwQmBWqvewyJ-A-49" style="edgeStyle=orthogonalEdgeStyle;rounded=0;orthogonalLoop=1;jettySize=auto;html=1;entryX=0.5;entryY=1;entryDx=0;entryDy=0;" edge="1" parent="1" source="BGrQ7yWwQmBWqvewyJ-A-47" target="BGrQ7yWwQmBWqvewyJ-A-43">
          <mxGeometry relative="1" as="geometry">
            <Array as="points">
              <mxPoint x="1160" y="330" />
              <mxPoint x="1160" y="330" />
            </Array>
          </mxGeometry>
        </mxCell>
        <mxCell id="BGrQ7yWwQmBWqvewyJ-A-47" value="AddrGen" style="rounded=0;whiteSpace=wrap;html=1;" vertex="1" parent="1">
          <mxGeometry x="1150" y="395" width="120" height="60" as="geometry" />
        </mxCell>
        <mxCell id="BGrQ7yWwQmBWqvewyJ-A-59" style="edgeStyle=orthogonalEdgeStyle;rounded=0;orthogonalLoop=1;jettySize=auto;html=1;entryX=0;entryY=0.5;entryDx=0;entryDy=0;" edge="1" parent="1" source="BGrQ7yWwQmBWqvewyJ-A-50" target="BGrQ7yWwQmBWqvewyJ-A-57">
          <mxGeometry relative="1" as="geometry" />
        </mxCell>
        <mxCell id="BGrQ7yWwQmBWqvewyJ-A-50" value="MEM/WB" style="rounded=0;whiteSpace=wrap;html=1;" vertex="1" parent="1">
          <mxGeometry x="1300" y="220" width="70" height="450" as="geometry" />
        </mxCell>
        <mxCell id="BGrQ7yWwQmBWqvewyJ-A-56" style="edgeStyle=orthogonalEdgeStyle;rounded=0;orthogonalLoop=1;jettySize=auto;html=1;entryX=0.5;entryY=0;entryDx=0;entryDy=0;" edge="1" parent="1" source="BGrQ7yWwQmBWqvewyJ-A-53" target="BGrQ7yWwQmBWqvewyJ-A-16">
          <mxGeometry relative="1" as="geometry">
            <Array as="points">
              <mxPoint x="1540" y="200" />
              <mxPoint x="570" y="200" />
            </Array>
          </mxGeometry>
        </mxCell>
        <mxCell id="BGrQ7yWwQmBWqvewyJ-A-53" value="ReadProxy" style="rounded=0;whiteSpace=wrap;html=1;" vertex="1" parent="1">
          <mxGeometry x="1460" y="240" width="120" height="60" as="geometry" />
        </mxCell>
        <mxCell id="BGrQ7yWwQmBWqvewyJ-A-58" style="edgeStyle=orthogonalEdgeStyle;rounded=0;orthogonalLoop=1;jettySize=auto;html=1;entryX=0.5;entryY=1;entryDx=0;entryDy=0;" edge="1" parent="1" source="BGrQ7yWwQmBWqvewyJ-A-57" target="BGrQ7yWwQmBWqvewyJ-A-53">
          <mxGeometry relative="1" as="geometry" />
        </mxCell>
        <mxCell id="BGrQ7yWwQmBWqvewyJ-A-57" value="RegFile" style="rounded=0;whiteSpace=wrap;html=1;" vertex="1" parent="1">
          <mxGeometry x="1460" y="370" width="120" height="60" as="geometry" />
        </mxCell>
      </root>
    </mxGraphModel>
  </diagram>
</mxfile>
